<svg viewBox="0 0 200 200" xmlns="http://www.w3.org/2000/svg" xmlns:xlink="http://www.w3.org/1999/xlink">
  <!-- Geometric abstract logo with purple/pink tones -->
  <!-- This is a placeholder SVG representation of the geometric logo -->
  <!-- The actual PNG will be used, but providing SVG fallback for compatibility -->
  
  <!-- Background circle -->
  <circle cx="100" cy="100" r="100" fill="#F5F0FF" opacity="0.1"/>
  
  <!-- Purple geometric shapes (stylized) -->
  <g id="shapes">
    <!-- Top shapes -->
    <path d="M 80 40 Q 95 30 110 40 L 100 55 Z" fill="#7C3AED"/>
    <ellipse cx="70" cy="50" rx="15" ry="20" fill="#9D4EDD" opacity="0.8"/>
    <path d="M 130 45 Q 140 55 135 70 L 120 65 Z" fill="#A855F7"/>
    
    <!-- Middle shapes -->
    <circle cx="90" cy="100" r="18" fill="#D8B4FE" opacity="0.6"/>
    <ellipse cx="110" cy="95" rx="20" ry="25" fill="#9D4EDD"/>
    <rect x="75" y="110" width="25" height="30" rx="5" fill="#7C3AED" opacity="0.7"/>
    
    <!-- Right side shapes -->
    <path d="M 135 80 L 155 90 Q 160 110 150 125 Z" fill="#A855F7"/>
    <circle cx="145" cy="130" r="12" fill="#E9D5FF" opacity="0.7"/>
    
    <!-- Bottom shapes -->
    <ellipse cx="85" cy="155" rx="18" ry="15" fill="#9D4EDD" opacity="0.8"/>
    <path d="M 120 150 Q 130 160 125 170 L 115 165 Z" fill="#7C3AED"/>
    <rect x="140" y="140" width="20" height="25" fill="#A855F7" opacity="0.6"/>
    
    <!-- Left side accent -->
    <circle cx="55" cy="110" r="14" fill="#C084FC" opacity="0.5"/>
    <path d="M 50 70 Q 60 75 65 85 L 55 80 Z" fill="#9D4EDD"/>
  </g>
  
  <!-- Center accent (pink/coral) -->
  <circle cx="100" cy="100" r="20" fill="#FF94D1" opacity="0.7"/>
  <circle cx="100" cy="100" r="12" fill="#F56565" opacity="0.5"/>
</svg>
